<svg width="95" height="95" viewBox="0 0 95 95" fill="none" xmlns="http://www.w3.org/2000/svg">
<path fill-rule="evenodd" clip-rule="evenodd" d="M47.5 1.52588e-05C21.2665 1.52588e-05 -1.52588e-05 21.2665 -1.52588e-05 47.5C-1.52588e-05 58.289 3.59703 68.2379 9.65729 76.2128C8.6965 73.6361 8.75174 70.7331 9.82302 67.5038C10.308 66.0418 11.0227 64.6871 11.967 63.4399C12.902 62.2208 13.9825 61.2216 15.2085 60.4424C16.5094 59.6255 17.9091 59.1223 19.4076 58.9328C20.9436 58.7245 22.541 58.8955 24.1998 59.4458C25.3525 59.8282 26.3461 60.2202 27.1803 60.6218C28.0521 61.0046 28.8115 61.4906 29.4587 62.0799C31.1096 63.595 31.5293 65.5756 30.7178 68.0217C30.3821 69.0338 29.831 70.1306 29.0645 71.312C28.3134 70.0953 27.6002 69.1877 26.9248 68.5892C26.3152 68.0749 25.5465 67.6638 24.6187 67.356C22.7068 66.7218 20.9834 66.8835 19.4485 67.8412C18.7559 68.2356 18.1572 68.7704 17.6523 69.4456C17.1381 70.1489 16.7458 70.9082 16.4753 71.7236C15.7944 73.776 15.9469 75.5744 16.9327 77.1186C17.3177 77.7456 17.8102 78.2836 18.4104 78.7323C19.0106 79.1811 19.648 79.5174 20.3228 79.7413C21.335 80.077 22.2673 80.2303 23.1197 80.2009C24.0002 80.1809 24.885 79.9127 25.7742 79.3962C27.6086 78.2882 29.7079 75.77 32.0722 71.8416L66.0779 14.6326C61.6663 14.9481 57.8558 16.368 54.6464 18.8925C51.4745 21.3982 49.1284 24.9424 47.6081 29.5253C46.9925 31.3809 46.7277 32.8848 46.8136 34.0369C46.8049 34.4397 46.8382 34.8096 46.9136 35.1468C46.9608 35.3809 46.9517 35.5963 46.8864 35.7932C43.7656 34.7579 41.6934 33.3838 40.6699 31.6711C39.515 29.7899 39.4365 27.3451 40.4345 24.3367C41.0594 22.4529 42.0827 20.7326 43.5043 19.1755C44.9352 17.5904 46.6802 16.1874 48.7393 14.9667C50.686 13.8023 52.8626 12.839 55.2689 12.0768C57.7127 11.2958 60.2458 10.7629 62.8683 10.4781C68.3661 9.89872 73.4768 10.3925 78.2002 11.9594L79.4904 12.3874C71.049 4.69225 59.8225 1.52588e-05 47.5 1.52588e-05ZM81.151 13.976L48.3691 70.132C46.5002 73.3196 44.5604 76.0156 42.5495 78.2198C40.5575 80.4615 38.4102 82.1835 36.1075 83.3859C33.6551 84.6634 30.991 85.3557 28.1154 85.4629C25.2304 85.5982 22.0448 85.0876 18.5584 83.931C17.4764 83.5721 16.4851 83.1553 15.5844 82.6807C24.0172 90.3354 35.2139 95 47.5 95C73.7335 95 95 73.7335 95 47.5C95 34.4155 89.7095 22.5667 81.151 13.976Z" fill="#F14668"/>
</svg>
